<?xml version="1.0" encoding="UTF-8" standalone="no"?>
<svg
   xmlns:dc="http://purl.org/dc/elements/1.1/"
   xmlns:cc="http://creativecommons.org/ns#"
   xmlns:rdf="http://www.w3.org/1999/02/22-rdf-syntax-ns#"
   xmlns:svg="http://www.w3.org/2000/svg"
   xmlns="http://www.w3.org/2000/svg"
   xmlns:sodipodi="http://sodipodi.sourceforge.net/DTD/sodipodi-0.dtd"
   xmlns:inkscape="http://www.inkscape.org/namespaces/inkscape"
   version="1.1"
   id="svg4995"
   viewBox="0 0 90.000001 90.000001"
   height="90"
   width="90"
   inkscape:version="0.91 r13725"
   sodipodi:docname="1425710397e.svg">
  <sodipodi:namedview
     pagecolor="#ffffff"
     bordercolor="#666666"
     borderopacity="1"
     objecttolerance="10"
     gridtolerance="10"
     guidetolerance="10"
     inkscape:pageopacity="0"
     inkscape:pageshadow="2"
     inkscape:window-width="1920"
     inkscape:window-height="1017"
     id="namedview7"
     showgrid="false"
     inkscape:zoom="2.6222222"
     inkscape:cx="45"
     inkscape:cy="44.618644"
     inkscape:window-x="-8"
     inkscape:window-y="-8"
     inkscape:window-maximized="1"
     inkscape:current-layer="svg4995" />
  <defs
     id="defs4997" />
  <metadata
     id="metadata5000">
    <rdf:RDF>
      <cc:Work
         rdf:about="">
        <dc:format>image/svg+xml</dc:format>
        <dc:type
           rdf:resource="http://purl.org/dc/dcmitype/StillImage" />
        <dc:title></dc:title>
      </cc:Work>
    </rdf:RDF>
  </metadata>
  <g
     transform="translate(-126.42857,-401.64792)"
     id="layer1"
     style="fill:#000000;fill-opacity:1">
    <path
       id="path5651-5-2-2-2"
       d="m 171.42857,401.64792 a 45,45 0 0 0 -45,45 45,45 0 0 0 45,45 45,45 0 0 0 45,-45 45,45 0 0 0 -45,-45 z m 5.1113,17.2559 a 27.74422,27.74422 0 0 1 27.7441,27.7441 27.74422,27.74422 0 0 1 -27.7441,27.7442 27.74422,27.74422 0 0 1 -12.4531,-3.002 c 0.4957,-1.1696 0.7714,-2.4583 0.7714,-3.8125 l 0,-9.7343 c 0,-3.3706 -1.6965,-6.3299 -4.2851,-8.0762 a 11.681776,16.062443 0 0 0 1.3633,-7.5 11.681776,16.062443 0 0 0 -6.0664,-14.082 27.74422,27.74422 0 0 1 20.6699,-9.2813 z m -26.2852,10.2207 a 8.7613318,13.141997 0 0 1 8.7617,13.1426 8.7613318,13.141997 0 0 1 -1.0664,6.2598 c -0.8945,-0.2687 -1.8436,-0.418 -2.8281,-0.418 l -9.7344,0 c -0.9872,0 -1.9374,0.1472 -2.8339,0.418 a 8.7613318,13.141997 0 0 1 -1.0606,-6.2598 8.7613318,13.141997 0 0 1 8.7617,-13.1426 z m 16.9981,10.2227 -0.8926,2 5.0586,2.2578 -5.1016,2.5429 0.9766,1.961 7.1797,-3.5801 a 1.0952759,1.0952759 0 0 0 -0.043,-1.9785 l -7.1777,-3.2031 z m 18.7773,0.7304 a 3.6505543,3.6505543 0 0 0 -3.6504,3.6504 3.6505543,3.6505543 0 0 0 3.6504,3.6504 3.6505543,3.6505543 0 0 0 3.6504,-3.6504 3.6505543,3.6505543 0 0 0 -3.6504,-3.6504 z m -39.6699,10.9512 7.7891,0 c 3.6403,0 6.6716,2.4773 7.5332,5.8418 l -12.8868,0 0,1.459 13.1172,0 c 0,0.1617 0.023,0.3217 0.023,0.4863 l 0,3.1641 -13.1426,0 0,1.4609 13.1426,0 0,3.1641 c 0,0.164 0,0.3254 -0.023,0.4863 l -13.1172,0 0,1.4609 12.8868,0 c -0.8616,3.3643 -3.8929,5.8399 -7.5332,5.8399 l -7.7891,0 c -4.3145,0 -7.7871,-3.4729 -7.7871,-7.7871 l 0,-7.7891 c 0,-4.3143 3.4726,-7.7871 7.7871,-7.7871 z m 23.1738,4.4629 -1.8535,1.168 c 0,0 3.7145,6.0058 10.3184,6.0058 6.6039,0 10.3183,-6.0058 10.3183,-6.0058 l -1.8535,-1.168 c 0,0 -3.2149,4.9844 -8.4648,4.9844 -5.2499,0 -8.4649,-4.9844 -8.4649,-4.9844 z"
       style="fill:#000000;fill-opacity:1;fill-rule:nonzero;stroke:none;stroke-width:4;stroke-linecap:round;stroke-linejoin:round;stroke-miterlimit:4;stroke-dasharray:none;stroke-opacity:1" />
  </g>
  <path
     style="fill:#ffffff;fill-opacity:1;fill-rule:nonzero;stroke:none;stroke-width:1;stroke-linecap:butt;stroke-linejoin:miter;stroke-miterlimit:4;stroke-dasharray:none;stroke-opacity:0.88235294"
     d="m 15.668926,44.421567 c -1.126367,-5.61086 0.282806,-11.381773 3.585806,-14.684774 4.068342,-4.068341 9.54115,-1.927036 12.056904,4.717415 1.012325,2.673687 1.327163,7.55509 0.648483,10.054367 l -0.498255,1.834846 -7.689124,0.07193 -7.689125,0.07193 -0.414689,-2.065721 z"
     id="path4137"
     inkscape:connector-curvature="0" />
  <path
     style="fill:#ffffff;fill-opacity:1;fill-rule:nonzero;stroke:none;stroke-width:1;stroke-linecap:butt;stroke-linejoin:miter;stroke-miterlimit:4;stroke-dasharray:none;stroke-opacity:0.88235294"
     d="m 16.967068,71.898948 c -1.922605,-0.873421 -3.838802,-3.02872 -4.359392,-4.903355 -0.525478,-1.892236 -0.514272,-9.793473 0.01665,-11.737118 0.562931,-2.06084 1.98389,-3.853712 3.780883,-4.77047 1.300485,-0.663458 2.250061,-0.759191 7.530364,-0.759191 5.982763,0 6.05891,0.01064 7.73765,1.081294 0.959529,0.61196 2.078452,1.770648 2.577877,2.669491 l 0.882451,1.588198 -6.507451,0 -6.507452,0 0,0.953389 0,0.95339 6.673729,0 6.673729,0 0,1.525424 0,1.525424 -6.673729,0 -6.673729,0 0,0.95339 0,0.953389 6.673729,0 6.673729,0 0,1.716102 0,1.716102 -6.673729,0 c -6.419492,0 -6.673729,0.02905 -6.673729,0.762712 0,0.732709 0.254237,0.762712 6.463213,0.762712 l 6.463213,0 -0.393394,1.12849 c -0.532914,1.528716 -3.002786,3.688489 -4.783582,4.182988 -0.801393,0.222534 -3.688009,0.401795 -6.414704,0.398358 -3.971763,-0.005 -5.261621,-0.144349 -6.486322,-0.700719 z"
     id="path4139"
     inkscape:connector-curvature="0" />
  <path
     style="fill:#ffffff;fill-opacity:1;fill-rule:nonzero;stroke:none;stroke-width:1;stroke-linecap:butt;stroke-linejoin:miter;stroke-miterlimit:4;stroke-dasharray:none;stroke-opacity:0.88235294"
     d="m 45,72.064926 c -1.363347,-0.289468 -3.422669,-0.882019 -4.576271,-1.31678 l -2.097458,-0.790475 0,-8.302988 c 0,-9.226428 -0.159679,-9.962667 -2.714956,-12.517944 l -1.237785,-1.237786 0.569371,-1.8499 c 0.782747,-2.543166 0.757928,-8.283721 -0.0478,-11.055322 -0.872325,-3.000691 -2.18544,-5.491667 -3.794037,-7.197276 L 29.755171,26.36939 31.37123,24.877575 c 5.289402,-4.882753 11.496431,-7.293832 18.777075,-7.293832 4.747377,0 8.148106,0.787226 12.394068,2.869072 2.662784,1.305595 3.891776,2.23961 6.883574,5.231407 2.991798,2.991798 3.925811,4.220791 5.231406,6.883575 2.112258,4.307984 2.873063,7.637008 2.876083,12.584745 0.0027,4.605016 -0.665954,7.597695 -2.604428,11.654627 C 71.568957,63.839246 65.407304,69.099239 57.775424,71.4506 54.3523,72.505251 48.417888,72.790619 45,72.064926 Z M 56.77385,59.824163 c 1.085328,-0.590709 2.763608,-1.918895 3.729511,-2.951523 l 1.756186,-1.877505 -1.06417,-0.698086 -1.06417,-0.698086 -1.661482,1.709538 c -2.093447,2.154001 -4.301959,3.172305 -6.903584,3.183124 -2.625022,0.01091 -4.212795,-0.68742 -6.56456,-2.887219 -1.744539,-1.631813 -2.008475,-1.757489 -2.868241,-1.365753 -1.193261,0.543686 -1.18628,0.867493 0.05039,2.337189 1.323942,1.573417 4.082101,3.441364 6.01825,4.075825 2.476192,0.81143 6.225654,0.449466 8.571871,-0.827504 z M 48.622881,41.911017 c 0,-0.579915 -0.776885,-1.138495 -3.241525,-2.330655 -4.652389,-2.250384 -4.712606,-2.26107 -5.21664,-0.925731 -0.423388,1.121683 -0.413129,1.133585 1.918793,2.225996 l 2.344457,1.098283 -2.388989,1.213734 -2.38899,1.213734 0.590977,1.142822 0.590976,1.142822 3.895471,-2.009147 c 2.971517,-1.532604 3.89547,-2.190051 3.89547,-2.771858 z m 13.823557,2.671806 c 1.287507,-1.496816 1.176232,-3.747637 -0.256086,-5.179955 -1.518813,-1.518813 -3.374645,-1.522362 -5.067617,-0.0097 -1.023471,0.91447 -1.236756,1.381571 -1.236756,2.708518 0,1.339282 0.211694,1.792625 1.284833,2.751475 1.114564,0.995863 1.492374,1.120162 2.850906,0.937944 1.042145,-0.139781 1.853332,-0.544013 2.42472,-1.208291 z"
     id="path4141"
     inkscape:connector-curvature="0" />
</svg>
